# xmcd
#
# Track frame offsets: 
#        150
#        15834
#        35095
#        50838
#        66732
#        87132
#        104590
#        124416
#        142115
#        160363
#
# Disc length: 2338 seconds
#
# Revision: 1
# Processed by: cddbd v1.5.2PL0 Copyright (c) Steve Scherf et al.
# Submitted via: ExactAudioCopy v0.95b4
#
DISCID=9609200a
DTITLE=คำมอด พรขุนเดช - ขอบคุณมิโอ
DYEAR=2006
DGENRE=Country
TTITLE0=ขอบคุณมิโอ
TTITLE1=คือบ่บอกกันแน
TTITLE2=หลอยเมาข้างเล้าหมู
TTITLE3=ซูนให้หมอลำ
TTITLE4=ยอดชายนายคำมอด
TTITLE5=นั่งเศร้าเฝ้าเขียง
TTITLE6=ปิดเครื่องเฮ็ดหยัง
TTITLE7=หนุ่มประทายรักสาวประโคนชัย
TTITLE8=ทางรักนักเลง
TTITLE9=ขอดาวน์ค่าดอง
EXTD=
EXTT0=
EXTT1=
EXTT2=
EXTT3=
EXTT4=
EXTT5=
EXTT6=
EXTT7=
EXTT8=
EXTT9=
PLAYORDER=
